<?xml version="1.0" encoding="UTF-8" standalone="no"?>
<!-- Created with Inkscape (http://www.inkscape.org/) -->

<svg
   width="2729.6001"
   height="2683.2939"
   viewBox="0 0 2729.6003 2683.2937"
   id="svg2"
   version="1.1"
   inkscape:version="1.2.2 (732a01da63, 2022-12-09)"
   sodipodi:docname="daryl.svg"
   inkscape:export-filename="daryl.png"
   inkscape:export-xdpi="90"
   inkscape:export-ydpi="90"
   xml:space="preserve"
   xmlns:inkscape="http://www.inkscape.org/namespaces/inkscape"
   xmlns:sodipodi="http://sodipodi.sourceforge.net/DTD/sodipodi-0.dtd"
   xmlns:xlink="http://www.w3.org/1999/xlink"
   xmlns="http://www.w3.org/2000/svg"
   xmlns:svg="http://www.w3.org/2000/svg"
   xmlns:rdf="http://www.w3.org/1999/02/22-rdf-syntax-ns#"
   xmlns:cc="http://creativecommons.org/ns#"
   xmlns:dc="http://purl.org/dc/elements/1.1/"><defs
     id="defs4"><linearGradient
       inkscape:collect="always"
       id="linearGradient540"><stop
         style="stop-color:#e557ea;stop-opacity:1;"
         offset="0"
         id="stop536" /><stop
         style="stop-color:#578bea;stop-opacity:1"
         offset="1"
         id="stop538" /></linearGradient><marker
       inkscape:stockid="Arrow1Lstart"
       orient="auto"
       refY="0"
       refX="0"
       id="Arrow1Lstart"
       style="overflow:visible"
       inkscape:isstock="true"><path
         id="path4170"
         d="M 0,0 5,-5 -12.5,0 5,5 Z"
         style="fill:#000000;fill-opacity:1;fill-rule:evenodd;stroke:#000000;stroke-width:1pt;stroke-opacity:1"
         transform="matrix(0.8,0,0,0.8,10,0)"
         inkscape:connector-curvature="0" /></marker><linearGradient
       inkscape:collect="always"
       xlink:href="#linearGradient540"
       id="linearGradient542"
       x1="2513.9839"
       y1="-4.7556896"
       x2="2513.9836"
       y2="5137.166"
       gradientUnits="userSpaceOnUse" /><linearGradient
       inkscape:collect="always"
       xlink:href="#linearGradient540"
       id="linearGradient3605"
       gradientUnits="userSpaceOnUse"
       x1="2513.9839"
       y1="-4.7556896"
       x2="2513.9836"
       y2="5137.166" /><linearGradient
       inkscape:collect="always"
       xlink:href="#linearGradient540"
       id="linearGradient3607"
       gradientUnits="userSpaceOnUse"
       x1="2513.9839"
       y1="-4.7556896"
       x2="2513.9836"
       y2="5137.166" /><linearGradient
       inkscape:collect="always"
       xlink:href="#linearGradient540"
       id="linearGradient3609"
       gradientUnits="userSpaceOnUse"
       x1="2513.9839"
       y1="-4.7556896"
       x2="2513.9836"
       y2="5137.166" /><linearGradient
       inkscape:collect="always"
       xlink:href="#linearGradient540"
       id="linearGradient3611"
       gradientUnits="userSpaceOnUse"
       x1="2513.9839"
       y1="-4.7556896"
       x2="2513.9836"
       y2="5137.166" /><linearGradient
       inkscape:collect="always"
       xlink:href="#linearGradient540"
       id="linearGradient3613"
       gradientUnits="userSpaceOnUse"
       x1="2513.9839"
       y1="-4.7556896"
       x2="2513.9836"
       y2="5137.166" /><linearGradient
       inkscape:collect="always"
       xlink:href="#linearGradient540"
       id="linearGradient3615"
       gradientUnits="userSpaceOnUse"
       x1="2513.9839"
       y1="-4.7556896"
       x2="2513.9836"
       y2="5137.166" /><linearGradient
       inkscape:collect="always"
       xlink:href="#linearGradient540"
       id="linearGradient3617"
       gradientUnits="userSpaceOnUse"
       x1="2513.9839"
       y1="-4.7556896"
       x2="2513.9836"
       y2="5137.166" /><linearGradient
       inkscape:collect="always"
       xlink:href="#linearGradient540"
       id="linearGradient3619"
       gradientUnits="userSpaceOnUse"
       x1="2513.9839"
       y1="-4.7556896"
       x2="2513.9836"
       y2="5137.166" /><linearGradient
       inkscape:collect="always"
       xlink:href="#linearGradient540"
       id="linearGradient3621"
       gradientUnits="userSpaceOnUse"
       x1="2513.9839"
       y1="-4.7556896"
       x2="2513.9836"
       y2="5137.166" /></defs><sodipodi:namedview
     id="base"
     pagecolor="#ffffff"
     bordercolor="#666666"
     borderopacity="1.0"
     inkscape:pageopacity="0.0"
     inkscape:pageshadow="2"
     inkscape:zoom="0.175"
     inkscape:cx="-454.28571"
     inkscape:cy="1222.8571"
     inkscape:document-units="px"
     inkscape:current-layer="layer1"
     showgrid="false"
     units="px"
     inkscape:window-width="3840"
     inkscape:window-height="2126"
     inkscape:window-x="-11"
     inkscape:window-y="-11"
     inkscape:window-maximized="1"
     fit-margin-top="120"
     fit-margin-left="120"
     fit-margin-right="120"
     fit-margin-bottom="120"
     inkscape:showpageshadow="0"
     inkscape:pagecheckerboard="0"
     inkscape:deskcolor="#d1d1d1"><inkscape:grid
       type="xygrid"
       id="grid4149"
       originx="-641.77392"
       originy="-148.12686" /></sodipodi:namedview><metadata
     id="metadata7"><rdf:RDF><cc:Work
         rdf:about=""><dc:format>image/svg+xml</dc:format><dc:type
           rdf:resource="http://purl.org/dc/dcmitype/StillImage" /></cc:Work></rdf:RDF></metadata><g
     inkscape:label="Calque 1"
     inkscape:groupmode="layer"
     id="layer1"
     transform="translate(-641.77351,1570.0806)"><g
       id="g4205"
       transform="matrix(1.1058469,0,0,1.0246911,731.76529,-18.705227)"
       style="fill:#ea57b0;fill-opacity:1"><text
         id="text4177"
         y="1007.0537"
         x="-41.366451"
         style="font-style:normal;font-weight:normal;font-size:46.0952px;line-height:100%;font-family:sans-serif;letter-spacing:0px;word-spacing:0px;fill:#ea57b0;fill-opacity:1;stroke:#ffffff;stroke-width:16.5761;stroke-linecap:butt;stroke-linejoin:miter;stroke-miterlimit:4;stroke-dasharray:none;stroke-opacity:1"
         xml:space="preserve"><tspan
           id="tspan4199"
           style="font-style:normal;font-variant:normal;font-weight:normal;font-stretch:normal;font-size:720.239px;line-height:100%;font-family:'Earth Orbiter';-inkscape-font-specification:'Earth Orbiter';letter-spacing:0px;fill:#ea57b0;fill-opacity:1;stroke:none;stroke-width:16.5761;stroke-miterlimit:4;stroke-dasharray:none;stroke-opacity:1"
           y="1007.0537"
           x="-41.366451"
           sodipodi:role="line">DARYL</tspan></text></g><g
       id="g889"
       transform="matrix(10.922734,0,0,10.922734,880.11195,-1254.3081)" /><g
       id="g891"
       transform="matrix(10.922734,0,0,10.922734,880.11195,-1254.3081)" /><g
       id="g893"
       transform="matrix(10.922734,0,0,10.922734,880.11195,-1254.3081)" /><g
       id="g895"
       transform="matrix(10.922734,0,0,10.922734,880.11195,-1254.3081)" /><g
       id="g897"
       transform="matrix(10.922734,0,0,10.922734,880.11195,-1254.3081)" /><g
       id="g899"
       transform="matrix(10.922734,0,0,10.922734,880.11195,-1254.3081)" /><g
       id="g901"
       transform="matrix(10.922734,0,0,10.922734,880.11195,-1254.3081)" /><g
       id="g903"
       transform="matrix(10.922734,0,0,10.922734,880.11195,-1254.3081)" /><g
       id="g905"
       transform="matrix(10.922734,0,0,10.922734,880.11195,-1254.3081)" /><g
       id="g907"
       transform="matrix(10.922734,0,0,10.922734,880.11195,-1254.3081)" /><g
       id="g909"
       transform="matrix(10.922734,0,0,10.922734,880.11195,-1254.3081)" /><g
       id="g911"
       transform="matrix(10.922734,0,0,10.922734,880.11195,-1254.3081)" /><g
       id="g913"
       transform="matrix(10.922734,0,0,10.922734,880.11195,-1254.3081)" /><g
       id="g915"
       transform="matrix(10.922734,0,0,10.922734,880.11195,-1254.3081)" /><g
       id="g917"
       transform="matrix(10.922734,0,0,10.922734,880.11195,-1254.3081)" /><g
       transform="matrix(0.36562214,0,0,-0.36562214,1070.581,400.72852)"
       fill="#000000"
       stroke="none"
       id="g296"
       style="fill:url(#linearGradient542);fill-opacity:1"><path
         d="m 2472,5106 c -209,-68 -273,-338 -116,-490 22,-21 56,-45 77,-53 l 37,-15 v -94 -94 h -303 c -270,0 -312,-2 -381,-20 -187,-48 -309,-157 -380,-342 -11,-27 -21,-38 -35,-38 -11,0 -45,-9 -75,-21 -184,-68 -310,-236 -323,-430 -16,-227 140,-449 356,-504 l 46,-11 7,-59 c 31,-241 187,-409 429,-460 103,-22 1400,-22 1504,0 219,46 364,195 413,424 l 18,84 40,12 c 242,73 397,316 355,556 -34,190 -177,345 -361,392 -30,8 -57,20 -61,28 -4,8 -24,49 -44,92 -47,101 -125,182 -215,225 -125,59 -157,63 -497,69 l -313,6 v 92 93 l 29,10 c 41,14 118,88 144,137 31,58 31,202 0,261 -28,53 -87,109 -141,136 -55,26 -153,33 -210,14 z m 164,-210 c 28,-28 34,-42 34,-76 0,-34 -6,-48 -34,-76 -28,-28 -42,-34 -76,-34 -34,0 -48,6 -76,34 -28,28 -34,41 -34,78 1,67 42,107 114,108 30,0 45,-7 72,-34 z m 674,-742 c 127,-38 210,-130 240,-264 8,-39 10,-186 8,-515 -3,-452 -3,-461 -26,-516 -43,-108 -135,-184 -252,-209 -40,-8 -246,-10 -750,-8 l -695,3 -60,24 c -85,33 -164,115 -195,201 -23,63 -24,76 -28,472 -4,448 2,546 43,631 43,93 130,162 232,186 21,5 351,9 734,10 608,1 702,-1 749,-15 z M 1370,3465 v -295 l -40,20 c -182,93 -232,316 -107,473 31,40 110,97 134,97 10,0 13,-59 13,-295 z m 2451,267 c 93,-59 141,-146 143,-257 1,-80 -18,-137 -67,-198 -31,-40 -110,-97 -134,-97 -10,0 -13,58 -13,290 0,232 3,290 13,290 7,0 33,-13 58,-28 z"
         id="path278"
         style="fill:url(#linearGradient3605);fill-opacity:1" /><path
         d="m 1929,3937 c -73,-30 -122,-70 -163,-132 -44,-66 -59,-116 -59,-195 0,-80 15,-128 60,-197 41,-62 97,-105 173,-134 73,-28 194,-23 262,10 73,35 134,95 169,167 28,56 32,76 33,142 0,92 -13,142 -55,205 -90,136 -273,194 -420,134 z m 194,-171 c 46,-19 94,-77 102,-124 18,-106 -64,-202 -171,-202 -107,0 -192,108 -164,210 28,103 136,157 233,116 z"
         id="path280"
         style="fill:url(#linearGradient3607);fill-opacity:1" /><path
         d="m 2937,3936 c -100,-42 -155,-95 -199,-192 -17,-38 -22,-68 -23,-134 0,-77 3,-92 33,-152 36,-74 96,-133 170,-170 39,-19 63,-23 142,-23 82,0 103,4 152,27 220,103 270,393 96,568 -62,63 -135,93 -233,97 -67,3 -89,0 -138,-21 z m 220,-182 c 132,-99 84,-296 -76,-312 -105,-10 -186,63 -186,168 0,69 30,120 90,151 50,25 133,22 172,-7 z"
         id="path282"
         style="fill:url(#linearGradient3609);fill-opacity:1" /><path
         d="m 2015,3008 c -32,-18 -44,-40 -44,-78 0,-39 13,-61 46,-78 16,-9 167,-12 547,-12 h 524 l 31,26 c 25,20 31,34 31,64 0,30 -6,44 -31,64 l -31,26 h -526 c -378,-1 -533,-4 -547,-12 z"
         id="path284"
         style="fill:url(#linearGradient3611);fill-opacity:1" /><path
         d="m 1423,2369 c -369,-33 -642,-205 -815,-513 -52,-92 -54,-95 -108,-115 -30,-11 -74,-34 -97,-51 -75,-55 -133,-169 -133,-261 0,-90 99,-134 154,-68 14,17 26,43 26,58 0,50 41,114 90,139 104,54 216,-10 235,-134 11,-78 74,-117 137,-83 94,50 19,285 -117,365 l -44,25 32,55 c 121,205 322,346 555,388 l 32,6 -2,-618 -3,-617 -55,-8 c -30,-4 -79,-19 -109,-33 C 948,789 849,499 975,249 1032,137 1179,31 1307,10 1341,4 1866,0 2590,0 c 1046,0 1234,2 1288,15 216,51 362,235 362,457 0,253 -172,441 -433,473 l -57,7 v 614 614 l 33,-6 c 221,-40 405,-162 534,-354 58,-87 58,-83 2,-120 -135,-87 -203,-309 -111,-359 63,-34 126,5 137,83 19,124 131,188 235,134 49,-25 90,-89 90,-139 0,-15 12,-41 26,-58 54,-64 154,-22 154,65 0,63 -40,162 -87,214 -42,47 -147,110 -182,110 -10,0 -30,26 -50,63 -192,351 -454,521 -858,556 -141,13 -2111,12 -2250,0 z M 3570,1570 V 950 H 2565 1560 v 620 620 h 1005 1005 z m 326,-837 c 53,-28 109,-87 137,-143 30,-62 31,-175 1,-241 -29,-62 -97,-125 -161,-149 -53,-20 -79,-20 -1297,-20 -1395,0 -1294,-5 -1385,76 -131,118 -129,315 4,432 86,76 -15,71 1395,69 l 1265,-2 z"
         id="path286"
         style="fill:url(#linearGradient3613);fill-opacity:1" /><path
         d="m 2755,2128 c -28,-16 -576,-469 -597,-493 -25,-29 -22,-79 6,-112 l 24,-28 182,-5 183,-5 -187,-164 c -103,-90 -193,-173 -201,-185 -26,-35 -19,-81 16,-110 50,-42 78,-35 167,41 517,449 542,473 542,520 0,28 -24,68 -48,79 -9,4 -92,10 -183,13 l -166,6 190,155 c 222,181 240,209 178,271 -31,31 -70,37 -106,17 z"
         id="path288"
         style="fill:url(#linearGradient3615);fill-opacity:1" /><path
         d="m 1465,686 c -88,-41 -137,-118 -137,-216 0,-98 49,-175 137,-216 121,-57 269,-1 321,121 20,49 21,138 2,185 -37,88 -129,150 -223,150 -31,0 -69,-9 -100,-24 z m 137,-173 c 37,-33 14,-103 -34,-103 -50,0 -76,64 -41,102 20,22 51,23 75,1 z"
         id="path290"
         style="fill:url(#linearGradient3617);fill-opacity:1" /><path
         d="m 2474,694 c -47,-17 -106,-69 -130,-116 -9,-17 -19,-57 -21,-90 -14,-148 107,-269 255,-255 70,6 109,24 156,73 91,94 87,233 -9,329 -72,73 -156,93 -251,59 z m 126,-184 c 11,-11 20,-29 20,-40 0,-26 -34,-60 -62,-60 -29,0 -58,28 -58,57 0,28 33,63 60,63 11,0 29,-9 40,-20 z"
         id="path292"
         style="fill:url(#linearGradient3619);fill-opacity:1" /><path
         d="m 3460,690 c -96,-45 -144,-118 -144,-220 0,-255 346,-333 451,-103 52,112 13,243 -91,307 -64,40 -150,46 -216,16 z m 132,-177 c 22,-20 23,-61 1,-85 -43,-48 -122,8 -92,65 22,41 59,49 91,20 z"
         id="path294"
         style="fill:url(#linearGradient3621);fill-opacity:1" /></g></g></svg>
